{"title":"Cute busty japanese teen rammed (censored)[VPSR].avi","uid":10757902,"size":377900098,"categoryP":"porn","categoryS":"other","magnet":"?xt=urn:btih:ee95e1b32d203be95fb8ce8c08b82e928f8fde7f&amp;dn=Cute+busty+japanese+teen+rammed+%28censored%29%5BVPSR%5D.avi&amp;tr=udp%3A%2F%2Ftracker.openbittorrent.com%3A80&amp;tr=udp%3A%2F%2Fopen.demonii.com%3A1337&amp;tr=udp%3A%2F%2Ftracker.coppersurfer.tk%3A6969&amp;tr=udp%3A%2F%2Fexodus.desync.com%3A6969","seeders":0,"leechers":2,"uploader":"vpsr","files":1,"time":1407948689,"description":"Cute busty japanese teen rammed (censored)[VPSR].avi\n\n &lt;a href=&quot;\nhttp://s25.postimg.org/zac3b7mov/cute_busty.jpg&quot; rel=&quot;nofollow&quot; target=&quot;_NEW&quot;&gt;\nhttp://s25.postimg.org/zac3b7mov/cute_busty.jpg&lt;/a&gt;\n\n &lt;a href=&quot;\nhttp://s25.postimg.org/rivdcnijj/Cute_busty_japanese_teen_rammed_censored_VPSR.jpg&quot; rel=&quot;nofollow&quot; target=&quot;_NEW&quot;&gt;\nhttp://s25.postimg.org/rivdcnijj/Cute_busty_japanese_teen_rammed_censored_VPSR.jpg&lt;/a&gt;\n\n\n\nFILE INFO\n\n\nGeneral\nComplete name                            : Cute busty japanese teen rammed (censored)[VPSR].avi\nFormat                                   : AVI\nFormat/Info                              : Audio Video Interleave\nFile size                                : 360 MiB\nDuration                                 : 44mn 10s\nOverall bit rate                         : 1 141 Kbps\nWriting application                      : MEncoder yawoo-SVN-r27394-4.2.4\nWriting library                          : VirtualDub build 34807/release\n\nVideo\nID                                       : 0\nFormat                                   : MPEG-4 Visual\nFormat profile                           : Simple@L1\nFormat settings, BVOP                    : No\nFormat settings, QPel                    : No\nFormat settings, GMC                     : No warppoints\nFormat settings, Matrix                  : Default (H.263)\nCodec ID                                 : DIVX\nCodec ID/Info                            : Project Mayo\nCodec ID/Hint                            : DivX 4\nDuration                                 : 44mn 10s\nBit rate                                 : 1 001 Kbps\nWidth                                    : 720 pixels\nHeight                                   : 406 pixels\nDisplay aspect ratio                     : 16:9\nFrame rate                               : 29.970 fps\nColor space                              : YUV\nChroma subsampling                       : 4:2:0\nBit depth                                : 8 bits\nScan type                                : Progressive\nCompression mode                         : Lossy\nBits/(Pixel*Frame)                       : 0.114\nStream size                              : 316 MiB (88%)\nWriting library                          : Lavc51.62.0\n\nAudio\nID                                       : 1\nFormat                                   : MPEG Audio\nFormat version                           : Version 1\nFormat profile                           : Layer 3\nCodec ID                                 : 55\nCodec ID/Hint                            : MP3\nDuration                                 : 44mn 10s\nBit rate mode                            : Constant\nBit rate                                 : 128 Kbps\nChannel(s)                               : 2 channels\nSampling rate                            : 48.0 KHz\nCompression mode                         : Lossy\nDelay relative to video                  : 7ms\nStream size                              : 40.4 MiB (11%)\nAlignment                                : Split accross interleaves\nInterleave, duration                     : 33 ms (1.00 video frame)\nInterleave, preload duration             : 500 ms\n\n","torrent":{"xt":"urn:btih:ee95e1b32d203be95fb8ce8c08b82e928f8fde7f","amp;dn":"Cute+busty+japanese+teen+rammed+%28censored%29%5BVPSR%5D.avi","amp;tr":["udp%3A%2F%2Ftracker.openbittorrent.com%3A80","udp%3A%2F%2Fopen.demonii.com%3A1337","udp%3A%2F%2Ftracker.coppersurfer.tk%3A6969","udp%3A%2F%2Fexodus.desync.com%3A6969"],"infoHash":"ee95e1b32d203be95fb8ce8c08b82e928f8fde7f","infoHashBuffer":{"type":"Buffer","data":[238,149,225,179,45,32,59,233,95,184,206,140,8,184,46,146,143,143,222,127]},"announce":[],"urlList":[]}}